REM DIRINDEX 1\8,1\2\11,1\3\12,1\3\14,1\5\15,1\5\16,1\6\17,1\6\18,1\4\19,1\4\20,1\4\21,1\4\22,1\7\23,1\7\24,1\7\25,1\2\9\26,1\2\9\27,1\2\10\28,1\2\10\29,1\2\10\30,1\2\10\31,1\2\10\32,1\3\13\33,1\3\13\34,1\3\13\35
REM DIRNAME folder01,folder02,folder03,folder04,folder05,folder06,folder07,folder08,folder09,folder10,folder11,folder12,folder13,folder14,folder15,folder16,folder17,folder18,folder19,folder20,folder21,folder22,folder23,folder24,folder25,folder26,folder27,folder28,folder29,folder30,folder31,folder32,folder33,folder34,folder35
TITLE ""
FILE "125 125_例文UNIT1_SET3.mp3" MP3
  TRACK 01 AUDIO
    TITLE "22:cjc123_2728"
    INDEX 01 00:00:00
  TRACK 02 AUDIO
    TITLE "0:"
    INDEX 01 00:02:47
  TRACK 03 AUDIO
    TITLE "19:cjc123_2729"
    INDEX 01 00:03:25
  TRACK 04 AUDIO
    TITLE "0:"
    INDEX 01 00:06:35
  TRACK 05 AUDIO
    TITLE "20:cjc123_2730"
    INDEX 01 00:06:67
  TRACK 06 AUDIO
    TITLE "0:"
    INDEX 01 00:10:18
  TRACK 07 AUDIO
    TITLE "21:cjc123_2731"
    INDEX 01 00:10:45
  TRACK 08 AUDIO
    TITLE "0:"
    INDEX 01 00:13:53
  TRACK 09 AUDIO
    TITLE "19:cjc123_2732"
    INDEX 01 00:14:27
  TRACK 10 AUDIO
    TITLE "0:"
    INDEX 01 00:16:36
  TRACK 11 AUDIO
    TITLE "20:cjc123_2733"
    INDEX 01 00:16:73
  TRACK 12 AUDIO
    TITLE "0:"
    INDEX 01 00:19:24
  TRACK 13 AUDIO
    TITLE "21:cjc123_2734"
    INDEX 01 00:19:52
  TRACK 14 AUDIO
    TITLE "0:"
    INDEX 01 00:21:58
  TRACK 15 AUDIO
    TITLE "19:cjc123_2735"
    INDEX 01 00:22:38
  TRACK 16 AUDIO
    TITLE "0:"
    INDEX 01 00:24:72
  TRACK 17 AUDIO
    TITLE "20:cjc123_2736"
    INDEX 01 00:25:31
  TRACK 18 AUDIO
    TITLE "0:"
    INDEX 01 00:28:21
  TRACK 19 AUDIO
    TITLE "21:cjc123_2737"
    INDEX 01 00:28:49
  TRACK 20 AUDIO
    TITLE "0:"
    INDEX 01 00:31:08
  TRACK 21 AUDIO
    TITLE "19:cjc123_2738"
    INDEX 01 00:31:59
  TRACK 22 AUDIO
    TITLE "0:"
    INDEX 01 00:34:06
  TRACK 23 AUDIO
    TITLE "20:cjc123_2739"
    INDEX 01 00:34:43
  TRACK 24 AUDIO
    TITLE "0:"
    INDEX 01 00:37:10
  TRACK 25 AUDIO
    TITLE "21:cjc123_2740"
    INDEX 01 00:37:36
  TRACK 26 AUDIO
    TITLE "0:"
    INDEX 01 00:39:58
  TRACK 27 AUDIO
    TITLE "19:cjc123_2741"
    INDEX 01 00:40:42
  TRACK 28 AUDIO
    TITLE "0:"
    INDEX 01 00:43:27
  TRACK 29 AUDIO
    TITLE "20:cjc123_2742"
    INDEX 01 00:43:54
  TRACK 30 AUDIO
    TITLE "0:"
    INDEX 01 00:46:27
  TRACK 31 AUDIO
    TITLE "21:cjc123_2743"
    INDEX 01 00:46:58
  TRACK 32 AUDIO
    TITLE "0:"
    INDEX 01 00:49:45
  TRACK 33 AUDIO
    TITLE "19:cjc123_2744"
    INDEX 01 00:50:11
  TRACK 34 AUDIO
    TITLE "0:"
    INDEX 01 00:52:57
  TRACK 35 AUDIO
    TITLE "20:cjc123_2745"
    INDEX 01 00:53:17
  TRACK 36 AUDIO
    TITLE "0:"
    INDEX 01 00:55:67
  TRACK 37 AUDIO
    TITLE "21:cjc123_2746"
    INDEX 01 00:56:20
  TRACK 38 AUDIO
    TITLE "0:"
    INDEX 01 00:58:69
  TRACK 39 AUDIO
    TITLE "19:cjc123_2747"
    INDEX 01 00:59:43
  TRACK 40 AUDIO
    TITLE "0:"
    INDEX 01 01:03:00
  TRACK 41 AUDIO
    TITLE "20:cjc123_2748"
    INDEX 01 01:03:33
  TRACK 42 AUDIO
    TITLE "0:"
    INDEX 01 01:07:29
  TRACK 43 AUDIO
    TITLE "21:cjc123_2749"
    INDEX 01 01:07:55
  TRACK 44 AUDIO
    TITLE "0:"
    INDEX 01 01:11:09
  TRACK 45 AUDIO
    TITLE "19:cjc123_2750"
    INDEX 01 01:11:56
  TRACK 46 AUDIO
    TITLE "0:"
    INDEX 01 01:14:57
  TRACK 47 AUDIO
    TITLE "20:cjc123_2751"
    INDEX 01 01:15:09
  TRACK 48 AUDIO
    TITLE "0:"
    INDEX 01 01:18:07
  TRACK 49 AUDIO
    TITLE "21:cjc123_2752"
    INDEX 01 01:18:33
  TRACK 50 AUDIO
    TITLE "0:"
    INDEX 01 01:21:33
  TRACK 51 AUDIO
    TITLE "19:cjc123_2753"
    INDEX 01 01:22:03
  TRACK 52 AUDIO
    TITLE "0:"
    INDEX 01 01:24:30
  TRACK 53 AUDIO
    TITLE "20:cjc123_2754"
    INDEX 01 01:24:63
  TRACK 54 AUDIO
    TITLE "0:"
    INDEX 01 01:27:30
  TRACK 55 AUDIO
    TITLE "21:cjc123_2755"
    INDEX 01 01:27:57
  TRACK 56 AUDIO
    TITLE "0:"
    INDEX 01 01:30:09
  TRACK 57 AUDIO
    TITLE "19:cjc123_2756"
    INDEX 01 01:30:58
  TRACK 58 AUDIO
    TITLE "0:"
    INDEX 01 01:33:21
  TRACK 59 AUDIO
    TITLE "20:cjc123_2757"
    INDEX 01 01:33:54
  TRACK 60 AUDIO
    TITLE "0:"
    INDEX 01 01:36:62
  TRACK 61 AUDIO
    TITLE "21:cjc123_2758"
    INDEX 01 01:37:13
  TRACK 62 AUDIO
    TITLE "0:"
    INDEX 01 01:39:47
  TRACK 63 AUDIO
    TITLE "19:cjc123_2759"
    INDEX 01 01:40:29
  TRACK 64 AUDIO
    TITLE "0:"
    INDEX 01 01:43:29
  TRACK 65 AUDIO
    TITLE "20:cjc123_2760"
    INDEX 01 01:43:62
  TRACK 66 AUDIO
    TITLE "0:"
    INDEX 01 01:47:42
  TRACK 67 AUDIO
    TITLE "21:cjc123_2761"
    INDEX 01 01:47:72
  TRACK 68 AUDIO
    TITLE "0:"
    INDEX 01 01:50:72
  TRACK 69 AUDIO
    TITLE "19:cjc123_2762"
    INDEX 01 01:51:50
  TRACK 70 AUDIO
    TITLE "0:"
    INDEX 01 01:54:50
  TRACK 71 AUDIO
    TITLE "20:cjc123_2763"
    INDEX 01 01:55:11
  TRACK 72 AUDIO
    TITLE "0:"
    INDEX 01 01:58:15
  TRACK 73 AUDIO
    TITLE "21:cjc123_2764"
    INDEX 01 01:58:44
  TRACK 74 AUDIO
    TITLE "0:"
    INDEX 01 02:01:45
  TRACK 75 AUDIO
    TITLE "19:cjc123_2765"
    INDEX 01 02:02:22
  TRACK 76 AUDIO
    TITLE "0:"
    INDEX 01 02:04:57
  TRACK 77 AUDIO
    TITLE "20:cjc123_2766"
    INDEX 01 02:05:21
  TRACK 78 AUDIO
    TITLE "0:"
    INDEX 01 02:08:33
  TRACK 79 AUDIO
    TITLE "21:cjc123_2767"
    INDEX 01 02:08:60
  TRACK 80 AUDIO
    TITLE "0:"
    INDEX 01 02:11:21
  TRACK 81 AUDIO
    TITLE "19:cjc123_2768"
    INDEX 01 02:11:74
  TRACK 82 AUDIO
    TITLE "0:"
    INDEX 01 02:14:18
  TRACK 83 AUDIO
    TITLE "20:cjc123_2769"
    INDEX 01 02:14:65
  TRACK 84 AUDIO
    TITLE "0:"
    INDEX 01 02:17:44
  TRACK 85 AUDIO
    TITLE "21:cjc123_2770"
    INDEX 01 02:17:71
  TRACK 86 AUDIO
    TITLE "0:"
    INDEX 01 02:20:16
  TRACK 87 AUDIO
    TITLE "19:cjc123_2771"
    INDEX 01 02:21:04
  TRACK 88 AUDIO
    TITLE "0:"
    INDEX 01 02:24:06
  TRACK 89 AUDIO
    TITLE "20:cjc123_2772"
    INDEX 01 02:24:36
  TRACK 90 AUDIO
    TITLE "0:"
    INDEX 01 02:27:48
  TRACK 91 AUDIO
    TITLE "21:cjc123_2773"
    INDEX 01 02:28:00
  TRACK 92 AUDIO
    TITLE "0:"
    INDEX 01 02:31:03
